<?xml version="1.0" encoding="UTF-8" standalone="no"?>
<!-- Created with Inkscape (http://www.inkscape.org/) -->

<svg
   xmlns:dc="http://purl.org/dc/elements/1.1/"
   xmlns:cc="http://creativecommons.org/ns#"
   xmlns:rdf="http://www.w3.org/1999/02/22-rdf-syntax-ns#"
   xmlns:svg="http://www.w3.org/2000/svg"
   xmlns="http://www.w3.org/2000/svg"
   xmlns:sodipodi="http://sodipodi.sourceforge.net/DTD/sodipodi-0.dtd"
   xmlns:inkscape="http://www.inkscape.org/namespaces/inkscape"
   width="579.8653mm"
   height="132.07236mm"
   viewBox="0 0 579.8653 132.07236"
   version="1.1"
   id="svg1020"
   inkscape:version="0.92.2 (5c3e80d, 2017-08-06)"
   sodipodi:docname="kanjigridlogo.svg">
  <defs
     id="defs1014" />
  <sodipodi:namedview
     id="base"
     pagecolor="#ffffff"
     bordercolor="#666666"
     borderopacity="1.0"
     inkscape:pageopacity="0.0"
     inkscape:pageshadow="2"
     inkscape:zoom="0.35"
     inkscape:cx="998.66556"
     inkscape:cy="-496.12874"
     inkscape:document-units="mm"
     inkscape:current-layer="layer1"
     showgrid="false"
     fit-margin-top="0"
     fit-margin-left="0"
     fit-margin-right="0"
     fit-margin-bottom="0"
     inkscape:window-width="2736"
     inkscape:window-height="1699"
     inkscape:window-x="-13"
     inkscape:window-y="-13"
     inkscape:window-maximized="1" />
  <metadata
     id="metadata1017">
    <rdf:RDF>
      <cc:Work
         rdf:about="">
        <dc:format>image/svg+xml</dc:format>
        <dc:type
           rdf:resource="http://purl.org/dc/dcmitype/StillImage" />
        <dc:title />
      </cc:Work>
    </rdf:RDF>
  </metadata>
  <g
     inkscape:label="Layer 1"
     inkscape:groupmode="layer"
     id="layer1"
     transform="translate(543.93263,114.50642)">
    <g
       aria-label="グリッド"
       style="font-style:normal;font-variant:normal;font-weight:bold;font-stretch:normal;font-size:97.526474px;line-height:1.25;font-family:STHupo;-inkscape-font-specification:'STHupo Bold';letter-spacing:0px;word-spacing:0px;fill:#ffffff;fill-opacity:1;stroke:none;stroke-width:5.41374302;stroke-miterlimit:4;stroke-dasharray:none;stroke-opacity:1"
       id="text857-9-0-2">
      <path
         d="m -263.40707,-56.554182 q -0.48763,0.195053 -0.87774,-0.195053 -1.75548,-1.560423 -4.97385,-1.560423 -3.21837,0 -5.36396,1.072791 -2.14558,1.072791 -3.02332,3.02332 -0.78021,1.95053 -0.78021,6.046642 0,5.656535 0.68269,7.997171 0.78021,2.340635 2.63321,3.510953 1.95053,1.072791 5.1689,1.072791 3.3159,0 5.16891,-1.560424 0.48763,-0.390105 0.68268,-0.390105 0.19506,0 0.48764,0.487632 0.29257,0.390106 0.87773,0.682685 0.58516,0.29258 0.58516,0.585159 0,1.462897 -1.65795,8.484803 -1.65795,7.021906 -4.77879,13.653707 -3.02333,6.5342734 -7.50954,11.9957559 -4.48622,5.3639561 -10.53286,9.655121 -6.04664,4.3886911 -11.60565,6.5342741 -5.46149,2.243109 -8.97244,2.243109 -5.65653,0 -8.67985,-3.803533 -2.9258,-3.706006 -2.9258,-8.2897502 0,-3.1208472 1.65795,-5.46148259 1.65795,-2.43816181 4.58375,-3.60847951 12.1908,-4.8763237 18.23745,-11.8982297 6.04664,-7.021906 8.4848,-16.774554 2.53569,-9.850174 2.53569,-12.971021 0,-3.120847 -2.9258,-3.120847 h -21.16324 q -2.04806,0 -3.41343,4.583744 -2.04805,6.826854 -6.33922,15.50671 -4.19364,8.679856 -7.21696,10.045227 -2.92579,1.36537 -5.75406,1.36537 -4.7788,0 -8.28975,-2.730741 -3.51095,-2.828268 -3.51095,-7.314486 0,-3.3159 1.95053,-6.436747 3.21837,-5.071377 5.94911,-11.703177 2.73074,-6.729326 3.90106,-12.385862 2.34064,-10.825439 13.16607,-10.825439 h 41.44876 q 9.85017,0 12.67844,2.925795 2.82826,2.925794 2.82826,7.216959 0,1.072791 -0.78021,1.170317 -1.46289,0.195053 -2.63321,1.170318 z m -2.43816,11.995756 q 0,2.438162 -0.29258,3.413427 -0.29258,0.877738 -1.26785,1.560424 -0.97526,0.585158 -3.02332,0.585158 -2.04805,0 -3.21837,-0.975264 -1.07279,-1.072792 -1.26785,-3.413427 -0.0975,-2.438162 -0.0975,-5.26643 0,-2.828267 0.29258,-3.706006 0.3901,-0.975264 1.56042,-1.755476 1.17032,-0.780212 3.02332,-0.780212 3.51095,0 3.90106,1.95053 0.39011,1.853003 0.39011,8.387276 z m 12.28833,-0.585158 q 0,3.218373 -0.3901,4.193638 -0.29258,0.975265 -1.26785,1.65795 -0.97526,0.585159 -2.92579,0.585159 -1.85301,0 -3.12085,-0.975265 -1.17032,-0.975265 -1.26784,-2.633215 -0.0975,-1.755476 -0.0975,-4.97385 0,-3.218374 0.29258,-4.486218 0.29258,-1.36537 1.17032,-2.048056 0.97526,-0.682685 3.51095,-0.682685 2.53569,0 3.3159,1.267844 0.78021,1.267844 0.78021,8.094698 z"
         style="font-style:normal;font-variant:normal;font-weight:bold;font-stretch:normal;font-family:STHupo;-inkscape-font-specification:'STHupo Bold';fill:#ffffff;stroke:none;stroke-width:5.41374302;stroke-miterlimit:4;stroke-dasharray:none;stroke-opacity:1"
         id="path818" />
      <path
         d="m -175.24314,-71.865838 q 3.12085,0 5.46148,1.072791 2.34064,1.072791 3.60848,3.120847 1.36537,2.048056 1.4629,5.071377 0.0975,2.925794 0.0975,6.534273 0,21.748404 -1.07279,30.525787 -1.26785,11.020491 -4.48622,18.6275564 -3.21838,7.50953845 -8.87491,12.5809151 -5.55901,5.1689035 -14.33639,8.8749095 -7.11944,3.02332 -10.53286,3.02332 -5.16891,0 -8.38728,-4.193638 -3.12085,-4.1936384 -3.12085,-8.2897503 0,-5.94911496 7.02191,-8.7773827 9.36254,-3.706006 13.45865,-7.607065 4.19364,-3.998585 5.75406,-11.800703 1.65796,-7.802118 1.65796,-24.089039 l -0.19506,-14.336392 q 0,-6.339221 2.53569,-8.28975 2.63322,-2.048056 9.9477,-2.048056 z m -52.17666,0.390106 q 5.94911,0 8.67985,2.535688 2.73074,2.438162 2.82827,7.412012 0.0975,4.876324 0.0975,18.334977 0,13.361127 -0.39011,17.847345 -0.29258,4.486218 -3.21837,7.021906 -2.9258,2.438162 -8.77738,2.438162 -5.75407,0 -8.58233,-2.340636 -2.73075,-2.438161 -2.73075,-7.899644 0,-0.292579 0.0975,-17.067133 0.19505,-16.87208 0.29258,-19.407768 0.19505,-2.535689 1.26784,-4.583745 1.0728,-2.145582 3.51096,-3.218373 2.53569,-1.072791 6.92438,-1.072791 z"
         style="font-style:normal;font-variant:normal;font-weight:bold;font-stretch:normal;font-family:STHupo;-inkscape-font-specification:'STHupo Bold';fill:#ffffff;stroke:none;stroke-width:5.41374302;stroke-miterlimit:4;stroke-dasharray:none;stroke-opacity:1"
         id="path820" />
      <path
         d="m -78.496877,-61.0404 q 3.803532,0 5.754062,0.975265 1.950529,0.975265 2.633215,3.120847 0.682685,2.145583 0.682685,6.92438 0,18.334977 -5.559009,30.525786 -5.461483,12.093283 -17.359712,19.60282148 -11.800704,7.50953852 -17.359714,7.50953852 -4.29116,0 -6.43675,-3.2183737 -2.04805,-3.2183736 -2.04805,-6.7293267 0,-5.363956 6.14417,-7.5095385 14.336388,-5.0713771 19.895397,-14.1413391 5.559009,-9.167488 5.559009,-27.307412 0,-5.363956 1.65795,-7.509539 1.65795,-2.243109 6.436747,-2.243109 z m -28.185153,1.365371 q 2.53569,0 4.19364,1.267844 1.75548,1.267844 2.535689,3.413427 0.780211,2.145582 2.340635,10.435332 1.65795,8.289751 1.65795,10.045227 0,3.023321 -2.828268,5.168903 -2.730736,2.145583 -6.534276,2.145583 -5.75406,0 -6.53427,-6.046642 -0.78021,-6.046641 -3.41343,-17.262186 -0.3901,-1.560423 -0.3901,-2.730741 0,-3.413426 2.82826,-4.876323 2.9258,-1.560424 6.14417,-1.560424 z m -23.2113,2.243109 q 2.82827,0 4.58375,1.560423 1.853,1.462898 2.73074,4.778798 0.87773,3.3159 2.34063,10.337806 1.4629,7.021906 1.4629,9.655121 0,3.901059 -2.53569,5.559009 -2.53569,1.560423 -6.24169,1.560423 -6.33922,0 -7.11944,-6.534273 -0.29258,-2.438162 -1.26784,-7.899645 -0.97526,-5.461482 -1.75548,-8.192224 -0.78021,-2.730741 -0.78021,-4.388691 0,-3.413426 2.82827,-4.876324 2.82827,-1.560423 5.75406,-1.560423 z"
         style="font-style:normal;font-variant:normal;font-weight:bold;font-stretch:normal;font-family:STHupo;-inkscape-font-specification:'STHupo Bold';fill:#ffffff;stroke:none;stroke-width:5.41374302;stroke-miterlimit:4;stroke-dasharray:none;stroke-opacity:1"
         id="path822" />
      <path
         d="m -14.324472,-44.16832 q 0,0.780212 0.09753,0.975265 0.195053,0.195053 0.780212,0.390106 12.87349441,3.3159 25.746989,7.802118 12.873495,4.486218 15.311656,7.607065 2.535689,3.023321 2.535689,7.216959 0,4.096112 -2.828268,7.704591 -2.730741,3.6084799 -7.216959,3.6084799 -3.023321,0 -6.046641,-1.7554769 -6.6318007,-3.803532 -16.5795011,-7.412012 -9.8501739,-3.608479 -11.2155449,-3.608479 -0.585158,0 -0.585158,1.267844 V 8.0083439 q 0,4.7787971 -2.535689,6.7293271 -2.535688,2.048056 -7.997171,2.048056 -5.461482,0 -7.99717,-2.048056 -2.535689,-1.95053 -2.535689,-6.7293271 V -62.600823 q 0,-4.778798 2.535689,-6.729327 2.535688,-2.048056 7.99717,-2.048056 5.461483,0 7.997171,2.048056 2.535689,1.950529 2.535689,6.729327 z m 32.768895,-17.359712 q 1.950529,0 2.925794,0.585159 0.975265,0.487632 1.170318,1.65795 0.292579,1.072791 0.292579,4.193638 0,3.023321 -0.09753,5.168903 -0.09753,2.145583 -1.072792,3.120847 -0.975264,0.975265 -3.218373,0.975265 -2.145583,0 -3.3159,-0.682685 -1.170318,-0.780212 -1.365371,-2.243109 -0.09753,-1.560424 -0.09753,-5.656535 0,-4.193639 0.292579,-5.071377 0.292579,-0.877738 1.365371,-1.462897 1.170317,-0.585159 3.120847,-0.585159 z m 16.5795,8.777383 q 0,3.3159 -0.390105,4.486217 -0.29258,1.170318 -1.365371,1.853003 -0.975265,0.682686 -2.925794,0.682686 -1.853003,0 -3.023321,-0.877739 -1.170318,-0.975264 -1.267844,-2.730741 -0.09753,-1.755476 -0.09753,-4.876324 0,-3.120847 0.29258,-4.388691 0.390106,-1.365371 1.36537,-1.950529 0.975265,-0.585159 3.413427,-0.585159 2.535688,0 3.218374,1.267844 0.780211,1.170318 0.780211,7.119433 z"
         style="font-style:normal;font-variant:normal;font-weight:bold;font-stretch:normal;font-family:STHupo;-inkscape-font-specification:'STHupo Bold';fill:#ffffff;stroke:none;stroke-width:5.41374302;stroke-miterlimit:4;stroke-dasharray:none;stroke-opacity:1"
         id="path824" />
    </g>
    <g
       aria-label="漢字"
       style="font-style:normal;font-weight:normal;font-size:97.526474px;line-height:1.25;font-family:sans-serif;letter-spacing:0px;word-spacing:0px;fill:#ffffff;fill-opacity:1;stroke:none;stroke-width:1.82862127"
       id="text835-8-5-3-6">
      <path
         d="m -543.93263,9.2320178 q 8.38118,-16.0004371 12.95273,-29.7150978 l 6.09541,5.333479 q -3.42867,13.3336979 -9.90504,28.191247 0,4.19059 -2.28577,1.904814 z m 25.14354,-65.9065628 v -6.095404 h 14.47659 v -8.000219 h 7.23829 q 3.0477,0.380963 0.38096,2.285777 v 5.714442 h 12.95274 v -8.000219 h 7.23829 q 3.0477,0.380963 0.38096,2.285777 v 5.714442 h 14.85755 v 6.095404 h -14.85755 v 7.238293 h 10.66696 v 19.810065 h -21.33392 v 6.095405 h 22.09585 v 6.095405 h -22.09585 l -0.38096,6.095404 h 27.81028 v 6.0954048 h -25.90546 q 6.0954,9.143107 27.04835,12.9527349 l -2.28577,8.0002183 q -20.19103,-3.428665 -29.7151,-16.3813997 -8.76215,15.2385117 -32.00088,17.1433257 l -1.90481,-8.0002188 q 22.85777,-1.5238511 28.19125,-13.7146604 h -23.6197 v -6.0954048 h 24.76259 l 0.38096,-6.095404 h -20.57199 v -6.095405 h 20.57199 v -6.095405 h -9.90503 -9.52407 v -19.810065 h 9.52407 v -7.238293 z m 45.71553,13.333698 h -13.71466 v 7.619256 h 13.71466 z m -21.33391,0 h -11.80985 v 7.619256 h 11.80985 z m -2.28578,-13.333698 v 7.238293 h 12.95274 v -7.238293 z m -32.00087,27.810284 q -5.71444,-4.952516 -12.95274,-9.143107 l 4.57156,-7.238293 q 7.61925,3.428665 12.95273,8.381181 z m 2.28577,-22.857767 q -5.71444,-5.333479 -12.19081,-9.52407 l 4.57156,-6.85733 q 7.61925,4.19059 12.19081,8.762144 z"
         style="fill:#ffffff;stroke-width:1.82862127"
         id="path827" />
      <path
         d="m -398.40485,-26.197522 v 4.952517 h 37.33435 v 7.238293 h -37.33435 V 8.0891294 q 0,6.0954046 -6.0954,6.0954046 h -10.286 l -1.90481,-7.2382929 h 9.1431 q 1.52386,0 1.52386,-1.5238512 V -14.006712 h -39.62013 v -7.238293 h 39.62013 v -9.905033 l 3.80962,0.761926 10.66696,-7.238293 h -36.57243 v -7.238293 h 44.19169 l 1.52385,-1.523851 6.47637,6.476367 -2.28578,0.761926 z m -0.38096,-33.905688 h 35.42954 v 19.04814 h -7.61926 v -11.809847 h -64.38271 v 12.571772 h -7.61926 V -60.10321 h 35.42954 v -10.285995 h 8.38119 q 3.80962,0.761925 0.38096,3.047702 z"
         style="fill:#ffffff;stroke-width:1.82862127"
         id="path829" />
    </g>
    <g
       aria-label="k   a   n   j   i   g   r   i   d"
       style="font-style:normal;font-variant:normal;font-weight:bold;font-stretch:normal;font-size:36.43984222px;line-height:1.25;font-family:STXihei;-inkscape-font-specification:'STXihei Bold';letter-spacing:0px;word-spacing:0px;fill:#ffffff;fill-opacity:1;stroke:none;stroke-width:0.68324715"
       id="text817-5-9">
      <path
         d="m -325.22604,-114.50642 h 2.51435 v 15.268299 l 8.92776,-7.798129 h 3.68042 l -10.64043,9.219283 11.25991,10.130276 h -3.53467 l -9.69299,-8.709123 v 8.709123 h -2.51435 z"
         style="font-style:normal;font-variant:normal;font-weight:bold;font-stretch:normal;font-family:STXihei;-inkscape-font-specification:'STXihei Bold';letter-spacing:0px;fill:#ffffff;stroke-width:0.68324715"
         id="path832" />
      <path
         d="m -259.964,-107.03625 v 19.349559 h -2.44147 v -3.316026 q -3.31602,3.971943 -7.76168,3.971943 -4.08126,0 -7.03289,-3.024507 -2.91519,-3.060947 -2.91519,-7.287968 0,-4.190581 2.95163,-7.178651 2.95162,-3.02451 7.06933,-3.02451 4.73718,0 7.6888,4.04483 v -3.53467 z m -2.29571,9.76588 q 0,-3.31603 -2.22283,-5.5753 -2.22283,-2.29571 -5.42953,-2.29571 -3.24315,0 -5.46598,2.36859 -2.22283,2.33215 -2.22283,5.50242 0,3.243146 2.25927,5.611736 2.25927,2.33215 5.42954,2.33215 3.13382,0 5.39309,-2.25927 2.25927,-2.259271 2.25927,-5.684616 z"
         style="font-style:normal;font-variant:normal;font-weight:bold;font-stretch:normal;font-family:STXihei;-inkscape-font-specification:'STXihei Bold';letter-spacing:0px;fill:#ffffff;stroke-width:0.68324715"
         id="path834" />
      <path
         d="m -227.00074,-107.03625 h 2.51435 v 3.46179 q 2.98806,-3.97195 7.25152,-3.97195 2.18639,0 3.93551,1.20252 1.74911,1.16607 2.47791,3.09739 0.72879,1.89487 0.72879,5.611732 v 9.948077 h -2.47791 v -9.21928 q 0,-3.388909 -0.32796,-4.591419 -0.29151,-1.20252 -0.94743,-2.04063 -0.61948,-0.83812 -1.60335,-1.2754 -0.98388,-0.43728 -2.29571,-0.43728 -1.49404,0 -2.84231,0.69236 -1.34828,0.69236 -2.29571,1.93131 -0.94744,1.23896 -1.2754,2.55079 -0.32795,1.311837 -0.32795,5.283779 v 7.10577 h -2.51435 z"
         style="font-style:normal;font-variant:normal;font-weight:bold;font-stretch:normal;font-family:STXihei;-inkscape-font-specification:'STXihei Bold';letter-spacing:0px;fill:#ffffff;stroke-width:0.68324715"
         id="path836" />
      <path
         d="m -178.59496,-112.42934 q 0,-0.83812 0.61947,-1.4576 0.61948,-0.61948 1.4576,-0.61948 0.83811,0 1.42115,0.61948 0.61948,0.58304 0.61948,1.4576 0,0.80167 -0.61948,1.42115 -0.61948,0.61948 -1.42115,0.61948 -0.80168,0 -1.4576,-0.61948 -0.61947,-0.61948 -0.61947,-1.42115 z m 0.83811,5.39309 h 2.51435 v 21.098671 q 0,2.36859 -0.61948,3.461785 -0.61947,1.129635 -2.00419,1.129635 -0.94743,0 -2.36859,-0.546597 v -2.222831 q 1.05676,0.473718 1.53048,0.473718 0.54659,0 0.72879,-0.619477 0.21864,-0.619477 0.21864,-2.40503 z"
         style="font-style:normal;font-variant:normal;font-weight:bold;font-stretch:normal;font-family:STXihei;-inkscape-font-specification:'STXihei Bold';letter-spacing:0px;fill:#ffffff;stroke-width:0.68324715"
         id="path838" />
      <path
         d="m -143.89968,-112.42934 q 0,-0.83812 0.58303,-1.4576 0.61948,-0.61948 1.4576,-0.61948 0.87455,0 1.45759,0.61948 0.61948,0.58304 0.61948,1.4576 0,0.83811 -0.61948,1.45759 -0.58304,0.58304 -1.45759,0.58304 -0.83812,0 -1.4576,-0.61948 -0.58303,-0.61948 -0.58303,-1.42115 z m 0.80167,5.39309 h 2.51435 v 19.349559 h -2.51435 z"
         style="font-style:normal;font-variant:normal;font-weight:bold;font-stretch:normal;font-family:STXihei;-inkscape-font-specification:'STXihei Bold';letter-spacing:0px;fill:#ffffff;stroke-width:0.68324715"
         id="path840" />
      <path
         d="m -91.199696,-107.03625 h 2.514349 v 14.940338 q 0,3.971943 -0.692357,5.830375 -0.692357,1.858432 -2.004191,3.097386 -1.311834,1.238955 -3.170266,1.894872 -1.858432,0.655917 -4.081263,0.655917 -7.579486,0 -9.984516,-6.049014 h 2.69655 q 2.11351,3.789744 7.178647,3.789744 2.441469,0 4.227021,-0.947436 1.821993,-0.947436 2.550789,-2.441469 0.765237,-1.457594 0.765237,-4.591421 v -0.838116 q -1.494033,1.858432 -3.534665,2.769428 -2.040631,0.910996 -4.299901,0.910996 -4.227018,0 -7.032888,-2.878747 -2.80587,-2.878748 -2.80587,-6.777811 0,-4.044822 2.98807,-6.960012 2.98806,-2.91519 6.996447,-2.91519 4.482101,0 7.688807,3.86263 z m 0.10932,9.365042 q 0,-3.170262 -2.149951,-5.320222 -2.149951,-2.14995 -5.320217,-2.14995 -3.352466,0 -5.575296,2.33215 -2.22283,2.29571 -2.22283,5.320221 0,2.951627 2.14995,5.065138 2.14995,2.077071 5.502417,2.077071 3.352465,0 5.465976,-2.040631 2.149951,-2.040631 2.149951,-5.283777 z"
         style="font-style:normal;font-variant:normal;font-weight:bold;font-stretch:normal;font-family:STXihei;-inkscape-font-specification:'STXihei Bold';letter-spacing:0px;fill:#ffffff;stroke-width:0.68324715"
         id="path842" />
      <path
         d="m -57.207579,-107.03625 h 2.550789 v 2.80587 q 1.020315,-1.71267 1.967751,-2.51435 0.983876,-0.80168 2.33215,-0.80168 1.020315,0 2.22283,0.65592 l -1.311834,2.11351 q -0.546598,-0.32796 -1.129635,-0.32796 -1.129635,0 -2.149951,1.16608 -0.983876,1.16607 -1.457594,3.02451 -0.473717,1.821988 -0.473717,6.668487 v 6.559172 h -2.550789 z"
         style="font-style:normal;font-variant:normal;font-weight:bold;font-stretch:normal;font-family:STXihei;-inkscape-font-specification:'STXihei Bold';letter-spacing:0px;fill:#ffffff;stroke-width:0.68324715"
         id="path844" />
      <path
         d="m -19.135935,-112.42934 q 0,-0.83812 0.583037,-1.4576 0.619478,-0.61948 1.457594,-0.61948 0.874556,0 1.457594,0.61948 0.619477,0.58304 0.619477,1.4576 0,0.83811 -0.619477,1.45759 -0.583038,0.58304 -1.457594,0.58304 -0.838116,0 -1.457594,-0.61948 -0.583037,-0.61948 -0.583037,-1.42115 z m 0.801676,5.39309 h 2.514349 v 19.349559 h -2.514349 z"
         style="font-style:normal;font-variant:normal;font-weight:bold;font-stretch:normal;font-family:STXihei;-inkscape-font-specification:'STXihei Bold';letter-spacing:0px;fill:#ffffff;stroke-width:0.68324715"
         id="path846" />
      <path
         d="m 35.932642,-114.50642 v 26.819729 h -2.441469 v -3.316026 q -3.316026,3.971943 -7.761687,3.971943 -4.117702,0 -7.032889,-3.024507 -2.915188,-3.024507 -2.915188,-7.287968 0,-4.190581 2.951628,-7.178651 2.951627,-3.02451 7.069329,-3.02451 4.737179,0 7.688807,4.04483 v -11.00484 z m -2.29571,17.27249 q 0,-3.31603 -2.186391,-5.61174 -2.18639,-2.29571 -5.465976,-2.29571 -3.279586,0 -5.502416,2.36859 -2.186391,2.33215 -2.186391,5.50242 0,3.206706 2.259271,5.575296 2.25927,2.36859 5.429536,2.36859 2.988067,0 5.320217,-2.222831 2.33215,-2.25927 2.33215,-5.684615 z"
         style="font-style:normal;font-variant:normal;font-weight:bold;font-stretch:normal;font-family:STXihei;-inkscape-font-specification:'STXihei Bold';letter-spacing:0px;fill:#ffffff;stroke-width:0.68324715"
         id="path848" />
    </g>
  </g>
</svg>
